<svg width="16" height="16" fill="none" xmlns="http://www.w3.org/2000/svg"><path d="M7.583 16c-.152-.903-.555-1.875-1.208-2.917-.653-1.055-1.583-2.034-2.792-2.937C2.39 9.243 1.194 8.666 0 8.416v-.874C1.18 7.264 2.313 6.75 3.396 6a10.783 10.783 0 0 0 2.75-2.75C6.896 2.153 7.375 1.07 7.583 0h.875c.125.694.375 1.41.75 2.146.375.722.854 1.417 1.438 2.083a12.85 12.85 0 0 0 2 1.771c1.097.778 2.215 1.292 3.354 1.542v.875c-.764.152-1.556.465-2.375.937a12.525 12.525 0 0 0-2.25 1.688 9.937 9.937 0 0 0-1.708 2.02C9.014 14.104 8.61 15.084 8.458 16h-.875z" fill="#000"/></svg>