<svg width="16" height="16" fill="none" xmlns="http://www.w3.org/2000/svg"><path fill-rule="evenodd" clip-rule="evenodd" d="M8 0a8 8 0 1 0 0 16A8 8 0 0 0 8 0zM6.242 3.759c.455-.02.6-.026 1.76-.026H8c1.159 0 1.304.005 1.759.026.454.02.764.093 1.037.198.28.109.518.255.755.492s.383.475.492.756c.105.271.177.581.199 1.035.02.456.025.601.025 1.76s-.005 1.304-.025 1.759c-.022.454-.094.764-.199 1.035-.109.28-.255.519-.492.756a2.087 2.087 0 0 1-.755.492c-.272.106-.582.178-1.036.199-.455.02-.6.026-1.76.026-1.158 0-1.303-.005-1.758-.026-.455-.021-.765-.093-1.036-.198a2.09 2.09 0 0 1-.756-.493 2.09 2.09 0 0 1-.492-.756c-.105-.271-.177-.581-.198-1.035-.02-.455-.026-.6-.026-1.76 0-1.158.005-1.303.026-1.759.02-.454.092-.764.198-1.035.11-.28.255-.519.493-.756a2.09 2.09 0 0 1 .755-.492c.272-.105.582-.177 1.036-.198z" fill="#4F4F4F"/><path fill-rule="evenodd" clip-rule="evenodd" d="M7.615 4.502h.383c1.139 0 1.274.004 1.724.025.416.019.642.088.792.147.2.077.341.17.49.319.15.15.242.291.32.49.058.15.128.377.147.793.02.45.024.584.024 1.723 0 1.139-.004 1.274-.024 1.724-.02.416-.089.641-.147.792-.078.199-.17.34-.32.49a1.32 1.32 0 0 1-.49.319c-.15.059-.376.128-.792.147-.45.02-.585.025-1.724.025-1.14 0-1.275-.005-1.724-.025-.416-.02-.642-.089-.793-.147-.199-.078-.34-.17-.49-.32a1.323 1.323 0 0 1-.32-.49c-.058-.15-.128-.376-.146-.792-.02-.45-.025-.585-.025-1.724 0-1.14.004-1.274.025-1.724.019-.416.088-.641.146-.792.078-.199.17-.341.32-.49.15-.15.291-.242.49-.32.15-.058.377-.128.793-.147.393-.018.546-.023 1.341-.024v.001zm2.66.709a.512.512 0 1 0 0 1.024.512.512 0 0 0 0-1.024zM5.807 8a2.191 2.191 0 1 1 4.382 0 2.191 2.191 0 0 1-4.382 0z" fill="#4F4F4F"/><path d="M8 6.578a1.422 1.422 0 1 1 0 2.844 1.422 1.422 0 0 1 0-2.844z" fill="#4F4F4F"/></svg>